<?xml version="1.0" encoding="UTF-8"?><svg id="Camada_1" xmlns="http://www.w3.org/2000/svg" viewBox="0 0 160.66 35"><defs><style>.cls-1{fill:#004065;}.cls-1,.cls-2{fill-rule:evenodd;}.cls-2,.cls-3{fill:#e47900;}</style></defs><path class="cls-2" d="M71.11,0c3.75,6.02,4.67,13.69,1.81,20.73-4.74,11.68-18.14,17.33-29.81,12.59-5.82-2.36-10.14-6.88-12.43-12.25,2.46,3.96,6.15,7.2,10.78,9.08,11.68,4.74,25.07-.91,29.81-12.59,2.38-5.86,2.14-12.15-.16-17.56"/><path class="cls-1" d="M15.52,6.41l-.14,.43c-.03,.11-.17,.22-.41,.34-.24,.11-.47,.17-.7,.17h-1.63c-.22,0-.41-.05-.56-.14-.15-.1-.21-.21-.18-.34l.14-.46c.11-.62-.54-.94-1.97-.94s-2.31,.31-2.64,.94l-1.39,3.89c-.11,.61,.55,.91,1.99,.91,3.36,0,5.05,.69,5.05,2.07,0,.11-.02,.21-.05,.29l-1.37,3.94c-.83,1.54-3.04,2.31-6.63,2.31-1.97,0-3.37-.26-4.2-.77-.55-.34-.82-.75-.82-1.25,0-.11,.02-.21,.05-.29l.17-.46c.11-.3,.48-.46,1.11-.46h1.61c.22,0,.41,.04,.56,.13,.15,.09,.21,.19,.18,.3l-.12,.48c-.11,.62,.55,.94,1.97,.94s2.31-.31,2.64-.94l1.37-3.89c.11-.64-.55-.96-1.97-.96-1.97,0-3.38-.26-4.23-.79-.54-.34-.82-.75-.82-1.25,0-.11,.02-.21,.05-.29l1.37-3.92c.83-1.55,3.04-2.33,6.63-2.33,1.95,0,3.35,.26,4.18,.77,.54,.35,.82,.77,.82,1.25,0,.13-.02,.23-.05,.31"/><path class="cls-1" d="M22.68,14.53c.05-.11-.02-.22-.19-.32-.18-.1-.38-.16-.62-.16h-1.39c-1.43-.03-2.31,.27-2.64,.91l-.74,2.33c-.11,.62,.54,.94,1.97,.94s2.31-.31,2.64-.94l.96-2.76h.02Zm5.26-5.12l-1.06,3.03c-.11,.32-.48,.47-1.11,.46-.26,0-.47,.06-.65,.18-.18,.12-.26,.25-.26,.4,0,.22,.18,.34,.55,.34,.22,0,.42,.05,.59,.14,.17,.1,.24,.21,.23,.34l-1.06,3c-.83,1.54-3.04,2.31-6.63,2.31-1.97,0-3.37-.26-4.2-.77-.54-.34-.82-.75-.82-1.25,0-.11,.02-.21,.05-.29l.79-2.31c.83-1.54,3.03-2.3,6.61-2.28,1.43,0,2.31-.32,2.64-.96l.84-2.31c.1-.62-.57-.94-1.99-.94s-2.3,.3-2.62,.91l-.19,.48c-.13,.32-.48,.47-1.06,.46h-1.63c-.22,0-.42-.05-.58-.14-.16-.1-.22-.2-.19-.31l.17-.48c.8-1.54,3-2.31,6.58-2.31,1.97,0,3.38,.26,4.23,.79,.54,.34,.82,.75,.82,1.25,0,.1-.02,.18-.05,.26h0Z"/><path class="cls-1" d="M42.36,7.56l-3.39,9.73c-.83,1.54-3.04,2.31-6.63,2.31-1.97,0-3.37-.26-4.2-.77-.54-.34-.82-.75-.82-1.25,0-.11,.02-.21,.05-.29l3.44-9.71c.02-.11,.14-.22,.37-.31,.23-.1,.46-.14,.68-.14h1.61c.59,.02,.86,.16,.79,.43l-3.39,9.73c-.11,.62,.54,.94,1.97,.94s2.31-.31,2.64-.94l3.41-9.71c.02-.11,.14-.22,.37-.31,.23-.1,.46-.14,.68-.14h1.63c.58,.02,.83,.16,.77,.43"/><path class="cls-1" d="M65.42,9.43c.1-.62-.57-.94-1.99-.94s-2.3,.3-2.62,.91l-1.01,2.79c-.03,.13,.03,.24,.19,.35,.16,.1,.35,.16,.58,.16h1.37c1.43,.03,2.31-.29,2.64-.96l.84-2.31Zm3.48-.02l-.84,2.31c-.83,1.54-3.04,2.3-6.63,2.28-1.43,0-2.31,.32-2.64,.96l-.74,2.33c-.11,.62,.54,.94,1.97,.94s2.31-.31,2.64-.94l.12-.48c.06-.29,.44-.43,1.13-.43h1.61c.22,0,.41,.04,.56,.13,.15,.09,.21,.19,.18,.3l-.12,.48c-.83,1.54-3.04,2.31-6.63,2.31-1.97,0-3.37-.26-4.2-.77-.55-.34-.82-.75-.82-1.25,0-.11,.02-.21,.05-.29l1.11-3c.02-.11,.13-.22,.35-.31,.22-.1,.44-.14,.67-.13,.23,0,.44-.05,.61-.18,.18-.13,.26-.27,.26-.43,0-.24-.18-.36-.55-.36-.58-.02-.82-.16-.72-.43l1.06-3.03c.8-1.54,2.99-2.31,6.58-2.31,1.97,0,3.38,.26,4.23,.79,.54,.34,.82,.75,.82,1.25,0,.1-.02,.18-.05,.26h0Z"/><path class="cls-1" d="M90.79,5.43l-.14,.43c-.03,.11-.17,.22-.41,.34-.24,.11-.47,.17-.7,.17h-1.63c-.22,0-.41-.05-.56-.14-.15-.1-.21-.21-.18-.34l.14-.46c.11-.62-.54-.94-1.97-.94s-2.31,.31-2.64,.94l-1.39,3.89c-.11,.61,.55,.91,1.99,.91,3.36,0,5.05,.69,5.05,2.07,0,.11-.02,.21-.05,.29l-1.37,3.94c-.83,1.54-3.04,2.31-6.63,2.31-1.97,0-3.37-.26-4.2-.77-.54-.34-.82-.75-.82-1.25,0-.11,.02-.21,.05-.29l.17-.46c.11-.3,.48-.46,1.11-.46h1.61c.22,0,.41,.04,.56,.13,.15,.09,.21,.19,.18,.3l-.12,.48c-.11,.62,.54,.94,1.97,.94s2.31-.31,2.64-.94l1.37-3.89c.11-.64-.54-.96-1.97-.96-1.97,0-3.38-.26-4.23-.79-.54-.34-.82-.75-.82-1.25,0-.11,.02-.21,.05-.29l1.37-3.92c.83-1.55,3.04-2.33,6.63-2.33,1.95,0,3.35,.26,4.18,.77,.54,.35,.82,.77,.82,1.25,0,.13-.02,.23-.05,.31"/><path class="cls-1" d="M99.97,8.67c.1-.62-.57-.94-1.99-.94s-2.3,.3-2.62,.91l-1.01,2.79c-.03,.13,.03,.24,.19,.35,.16,.1,.35,.16,.58,.16h1.37c1.43,.03,2.31-.29,2.64-.96l.84-2.31Zm3.48-.02l-.84,2.31c-.83,1.54-3.04,2.3-6.63,2.28-1.43,0-2.31,.32-2.64,.96l-.74,2.33c-.11,.62,.54,.94,1.97,.94s2.31-.31,2.64-.94l.12-.48c.06-.29,.44-.43,1.13-.43h1.61c.22,0,.41,.04,.56,.13,.15,.09,.21,.19,.18,.3l-.12,.48c-.83,1.54-3.04,2.31-6.63,2.31-1.97,0-3.37-.26-4.21-.77-.54-.34-.82-.75-.82-1.25,0-.11,.02-.21,.05-.29l1.11-3c.02-.11,.13-.22,.35-.31,.22-.1,.44-.14,.67-.13,.23,0,.44-.05,.61-.18,.18-.13,.26-.27,.26-.43,0-.24-.18-.36-.55-.36-.58-.02-.82-.16-.72-.43l1.06-3.03c.8-1.54,3-2.31,6.58-2.31,1.97,0,3.38,.26,4.23,.79,.54,.34,.82,.75,.82,1.25,0,.1-.02,.18-.05,.26"/><path class="cls-1" d="M115.9,8.65l-.19,.48c-.13,.32-.47,.47-1.03,.46h-1.63c-.24,0-.44-.05-.61-.14-.17-.1-.23-.2-.18-.31l.19-.46c.02-.06,.02-.14,.02-.22,0-.48-.37-.72-1.11-.72-1.43-.02-2.3,.29-2.62,.91l-3.46,9.71c-.11,.32-.47,.48-1.08,.48h-1.63c-.22,0-.41-.05-.56-.14-.15-.1-.21-.2-.18-.31l3.44-9.73c.8-1.54,3-2.31,6.58-2.31,2.74,0,4.11,.65,4.11,1.95,0,.14-.02,.26-.05,.36"/><path class="cls-1" d="M128.53,6.8l-.29,.94c-.61,1.95-1.78,3.97-3.51,6.05-1.25,1.49-2.72,2.93-4.4,4.33-1.39,1.15-2.12,1.7-2.19,1.63-1.47-2.39-2.21-4.97-2.21-7.74,0-1.47,.24-2.9,.72-4.28l.31-.91c.02-.11,.14-.22,.37-.31,.23-.1,.46-.14,.68-.14h1.61c.59,.02,.86,.16,.79,.43l-.31,.94c-.61,1.81-.91,3.5-.91,5.07,0,1.14,.14,2.07,.43,2.81,.67-.61,1.31-1.28,1.9-2.02,1.43-1.78,2.5-3.73,3.22-5.86l.31-.91c.02-.11,.14-.22,.37-.31,.23-.1,.46-.14,.68-.14h1.63c.22,0,.42,.04,.58,.13,.16,.09,.22,.19,.19,.3"/><path class="cls-1" d="M134.03,6.8l-4.08,11.56c-.11,.32-.47,.48-1.08,.48h-1.63c-.22,0-.41-.05-.56-.14-.15-.1-.21-.2-.18-.31l4.08-11.56c.02-.11,.14-.22,.37-.31,.23-.1,.46-.14,.68-.14h1.61c.59,.02,.86,.16,.79,.43m1.13-3.22l-.14,.43c-.03,.11-.17,.22-.41,.34-.24,.11-.47,.17-.7,.17h-1.63c-.22,0-.41-.05-.55-.14-.14-.1-.2-.21-.17-.34l.12-.46c.03-.11,.17-.22,.41-.32,.24-.1,.48-.16,.72-.16h1.61c.22,0,.41,.05,.57,.16,.15,.1,.21,.21,.18,.32"/><path class="cls-1" d="M38.62,5.34l-.14,.66c-.02,.11-.17,.22-.41,.34-.24,.11-.47,.17-.7,.17h-1.63c-.22,0-.41-.05-.55-.14-.14-.1-.2-.21-.17-.34l.12-.46c.03-.11,.17-.22,.41-.32,.24-.1,.48-.12,.72-.16l1.61-.23c.22-.03,.41,.05,.56,.16,.15,.1,.21,.21,.18,.32"/><path class="cls-1" d="M147.66,8.65l-.19,.48c-.13,.32-.48,.47-1.06,.46h-1.63c-.24,0-.44-.05-.61-.14-.17-.1-.23-.2-.18-.31l.19-.46c.1-.62-.57-.94-1.99-.94s-2.3,.3-2.62,.91l-2.76,7.88c-.11,.63,.55,.94,1.97,.94s2.31-.31,2.64-.94l.12-.48c.06-.29,.44-.43,1.13-.43h1.61c.22,0,.41,.04,.56,.13,.15,.09,.21,.19,.18,.3l-.12,.48c-.83,1.54-3.04,2.31-6.63,2.31-1.97,0-3.37-.26-4.2-.77-.54-.34-.82-.75-.82-1.25,0-.11,.02-.21,.05-.29l2.79-7.88c.8-1.54,3-2.31,6.58-2.31,1.97,0,3.38,.26,4.23,.79,.54,.34,.82,.75,.82,1.25,0,.1-.02,.18-.05,.26"/><path class="cls-1" d="M157.12,8.67c.1-.62-.57-.94-1.99-.94s-2.3,.3-2.62,.91l-1.01,2.79c-.03,.13,.03,.24,.19,.35,.16,.1,.35,.16,.58,.16h1.37c1.43,.03,2.31-.29,2.64-.96l.84-2.31Zm3.48-.02l-.84,2.31c-.83,1.54-3.04,2.3-6.63,2.28-1.42,0-2.31,.32-2.64,.96l-.74,2.33c-.11,.63,.54,.94,1.97,.94s2.31-.31,2.64-.94l.12-.48c.06-.29,.44-.43,1.13-.43h1.61c.23,0,.41,.04,.57,.13,.15,.09,.21,.19,.18,.3l-.12,.48c-.83,1.54-3.04,2.31-6.63,2.31-1.97,0-3.37-.26-4.2-.77-.55-.34-.82-.75-.82-1.25,0-.11,.02-.21,.05-.29l1.11-3c.02-.11,.13-.22,.35-.31,.22-.1,.44-.14,.67-.13,.23,0,.44-.05,.61-.18,.18-.13,.27-.27,.27-.43,0-.24-.18-.36-.55-.36-.58-.02-.82-.16-.72-.43l1.06-3.03c.8-1.54,2.99-2.31,6.58-2.31,1.97,0,3.38,.26,4.23,.79,.54,.34,.82,.75,.82,1.25,0,.1-.02,.18-.05,.26"/><path class="cls-1" d="M51.39,8.98c.03-.13-.03-.24-.18-.34-.15-.1-.35-.14-.59-.14h-1.39c-1.43,0-2.3,.3-2.62,.91l-2.76,7.88c-.11,.62,.54,.94,1.97,.94s2.31-.31,2.64-.94l2.93-8.31Zm.55,8.31c-.83,1.54-3.04,2.31-6.63,2.31-1.97,0-3.37-.26-4.2-.77-.54-.34-.82-.75-.82-1.25,0-.11,.02-.21,.05-.29l2.79-7.88c.8-1.54,3-2.3,6.58-2.28,1.49,0,2.15-.46,2.62-.94,.03-.04,.07-.07,.1-.1l1.7-4.81c.02-.11,.14-.22,.37-.31,.23-.1,.46-.14,.68-.14h1.61c.59,.02,.86,.16,.79,.43-1.89,5.34-3.77,10.69-5.65,16.03"/><path class="cls-3" d="M75.94,29.08h-1l1.98-5.91h.95l.96,2.76,2.8-2.76h1.04l-1.98,5.91h-1.04l.94-2.82c.17-.5,.34-1,.51-1.49h-.02c-.36,.37-.75,.76-1.15,1.16l-1.62,1.6-.5-1.44c-.14-.42-.31-.91-.43-1.32h-.02c-.17,.53-.34,1.08-.51,1.59l-.91,2.72Z"/><path class="cls-3" d="M83.33,25.68c.5-.47,1.11-.7,1.7-.7,.95,0,1.62,.61,1.45,1.65-.03,.22-.11,.51-.2,.72h-2.88c-.07,.67,.35,1.01,1.01,1.01,.46,0,.99-.16,1.36-.33l-.31,.91c-.38,.16-.89,.24-1.29,.24-1.11,0-1.95-.59-1.76-1.82,.1-.61,.42-1.23,.91-1.67m.29,.98h1.95c.09-.56-.16-.88-.69-.88s-.99,.34-1.26,.88"/><path class="cls-3" d="M88.13,25.06h.99l-1.35,4.02h-.99l1.35-4.02Zm1.08-1.97c.34,0,.55,.26,.5,.58-.06,.36-.4,.64-.76,.64-.33,0-.54-.26-.49-.58,.06-.36,.39-.64,.75-.64"/><path class="cls-3" d="M89.48,27.31c.09-.55,.38-1.18,.93-1.67,.48-.42,1.08-.66,1.72-.66,1.13,0,1.85,.72,1.67,1.86-.09,.55-.38,1.18-.93,1.67-.48,.42-1.08,.66-1.72,.66-1.13,0-1.85-.72-1.67-1.86m2.77,.63c.32-.29,.5-.69,.56-1.04,.1-.6-.21-1.06-.87-1.06-.33,0-.65,.12-.91,.37-.32,.29-.5,.69-.56,1.04-.1,.6,.21,1.06,.87,1.06,.33,0,.65-.12,.91-.37"/><path class="cls-3" d="M94.54,27.76c.39,.35,.96,.58,1.52,.58,.2,0,.4-.03,.53-.14,.08-.07,.16-.17,.18-.29,.06-.35-.42-.35-.92-.5-.66-.19-1-.49-.91-1.05,.06-.37,.28-.72,.6-.97,.35-.28,.82-.41,1.3-.41s1.06,.13,1.49,.37l-.31,.92c-.36-.26-.92-.45-1.38-.45-.2,0-.35,.03-.47,.11-.12,.07-.2,.19-.22,.31-.05,.34,.43,.34,.9,.47,.67,.18,1.01,.5,.91,1.09-.05,.33-.23,.66-.54,.93-.38,.33-.88,.45-1.4,.45-.56,0-1.12-.14-1.62-.44l.32-.97Z"/><path class="cls-3" d="M101.95,25.65c.53-.47,1.17-.68,1.79-.68,.35,0,.62,.07,.86,.16l.77-2.29h.99l-2.09,6.24h-.98l.11-.31h-.02c-.31,.24-.68,.4-1.13,.4-.9,0-1.46-.69-1.29-1.73,.1-.62,.44-1.3,.99-1.79m.73,2.69c.33,0,.69-.18,.98-.42l.64-1.92c-.18-.11-.45-.2-.74-.2-.4,0-.76,.18-1.04,.46-.28,.29-.48,.69-.54,1.07-.1,.63,.19,1.01,.7,1.01"/><path class="cls-3" d="M106.88,25.68c.5-.47,1.11-.7,1.7-.7,.95,0,1.62,.61,1.45,1.65-.03,.22-.11,.51-.2,.72h-2.88c-.07,.67,.35,1.01,1.01,1.01,.46,0,.99-.16,1.36-.33l-.31,.91c-.38,.16-.89,.24-1.29,.24-1.11,0-1.95-.59-1.76-1.82,.1-.61,.42-1.23,.91-1.67m.29,.98h1.95c.09-.56-.16-.88-.69-.88s-.99,.34-1.26,.88"/><path class="cls-3" d="M114.45,23.17h1.62c.75,0,1.29,.12,1.65,.47,.31,.29,.46,.7,.38,1.2-.08,.49-.38,1.08-.91,1.48-.49,.37-1.11,.55-1.96,.55h-.98l-.74,2.22h-1.04l1.98-5.91Zm1.05,2.82c.55,0,.89-.13,1.11-.31,.21-.17,.39-.44,.44-.74,.04-.26-.02-.47-.18-.6-.19-.16-.49-.24-.93-.24h-.76l-.64,1.9h.96Z"/><path class="cls-3" d="M121.34,29.08h-.98l.11-.32h-.01c-.31,.23-.69,.41-1.14,.41-.87,0-1.44-.69-1.28-1.73,.1-.62,.44-1.3,1.01-1.79,.55-.47,1.19-.68,1.81-.68s1.22,.22,1.7,.47l-1.21,3.63Zm.05-3.09c-.18-.1-.46-.18-.75-.18-.44,0-.78,.19-1.04,.45-.31,.31-.5,.73-.56,1.09-.1,.64,.21,1,.7,1,.33,0,.68-.16,1-.43l.65-1.93Z"/><path class="cls-3" d="M124.03,25.63c.48-.41,1.1-.65,1.78-.65,.59,0,1.2,.18,1.68,.43l-1.19,3.57c-.46,1.37-1.38,1.99-2.59,1.99-.5,0-.96-.1-1.4-.34l.32-.96c.33,.24,.79,.45,1.27,.45,.6,0,1.13-.32,1.38-1.05l.11-.3h-.01c-.29,.17-.59,.29-.98,.29-.91,0-1.5-.67-1.34-1.7,.1-.6,.45-1.27,.97-1.72m.78,2.6c.29,0,.58-.11,.84-.28l.67-1.99c-.17-.08-.46-.15-.72-.15-.43,0-.76,.18-1.01,.42-.29,.29-.48,.68-.54,1.03-.09,.59,.21,.97,.76,.97"/><path class="cls-3" d="M131.29,29.08h-.98l.11-.32h-.01c-.31,.23-.69,.41-1.14,.41-.87,0-1.44-.69-1.28-1.73,.1-.62,.44-1.3,1.01-1.79,.55-.47,1.19-.68,1.81-.68s1.22,.22,1.7,.47l-1.21,3.63Zm.05-3.09c-.18-.1-.46-.18-.75-.18-.44,0-.78,.19-1.04,.45-.31,.31-.5,.73-.56,1.09-.1,.64,.21,1,.7,1,.33,0,.68-.16,1-.43l.65-1.93Z"/><path class="cls-3" d="M133.99,25.06h.98l-.15,.44h.02c.37-.27,.87-.53,1.39-.53s.88,.27,.99,.69c.54-.43,1.11-.69,1.65-.69,.73,0,1.15,.48,1.03,1.21-.02,.16-.07,.33-.14,.54l-.79,2.36h-.99l.77-2.29c.06-.17,.1-.29,.11-.38,.05-.34-.11-.56-.48-.56s-.77,.2-1.18,.52c-.02,.1-.08,.27-.1,.35l-.79,2.36h-.99l.77-2.29c.06-.17,.09-.29,.1-.38,.05-.34-.1-.56-.48-.56s-.77,.2-1.16,.51l-.91,2.73h-.99l1.35-4.02Z"/><path class="cls-3" d="M141.58,25.68c.5-.47,1.11-.7,1.7-.7,.95,0,1.62,.61,1.45,1.65-.03,.22-.11,.51-.2,.72h-2.88c-.07,.67,.35,1.01,1.01,1.01,.46,0,.99-.16,1.36-.33l-.31,.91c-.38,.16-.89,.24-1.29,.24-1.11,0-1.95-.59-1.76-1.82,.1-.61,.42-1.23,.91-1.67m.29,.98h1.95c.09-.56-.16-.88-.69-.88s-.99,.34-1.26,.88"/><path class="cls-3" d="M146.37,25.06h.98l-.15,.44h.02c.46-.31,.94-.53,1.43-.53,.73,0,1.15,.48,1.03,1.24-.02,.14-.06,.3-.14,.52l-.79,2.34h-.99l.76-2.26c.06-.17,.09-.29,.1-.39,.05-.34-.07-.58-.47-.58-.38,0-.82,.22-1.22,.51l-.91,2.73h-.99l1.35-4.02Z"/><path class="cls-3" d="M151.85,27.42c-.05,.15-.08,.28-.1,.39-.05,.31,.07,.51,.44,.51,.16,0,.35-.04,.5-.09l-.29,.86c-.16,.05-.36,.08-.57,.08-.7,0-1.25-.34-1.12-1.18,.02-.14,.07-.33,.14-.55l.51-1.54h-.69l.28-.84h.69l.37-1.12,1-.06-.39,1.18h1.12l-.28,.84h-1.12l-.51,1.52Z"/><path class="cls-3" d="M153.73,27.31c.09-.55,.38-1.18,.93-1.67,.48-.42,1.08-.66,1.72-.66,1.13,0,1.85,.72,1.67,1.86-.09,.55-.38,1.18-.93,1.67-.48,.42-1.08,.66-1.72,.66-1.13,0-1.85-.72-1.67-1.86m2.77,.63c.32-.29,.5-.69,.56-1.04,.1-.6-.21-1.06-.87-1.06-.33,0-.65,.12-.91,.37-.32,.29-.5,.69-.56,1.04-.1,.6,.21,1.06,.87,1.06,.33,0,.65-.12,.91-.37"/></svg>