<?xml version="1.0" encoding="utf-8"?>
<!-- Generator: Adobe Illustrator 16.0.0, SVG Export Plug-In . SVG Version: 6.00 Build 0)  -->
<!DOCTYPE svg PUBLIC "-//W3C//DTD SVG 1.1//EN" "http://www.w3.org/Graphics/SVG/1.1/DTD/svg11.dtd">
<svg version="1.1" id="Layer_1" xmlns="http://www.w3.org/2000/svg" xmlns:xlink="http://www.w3.org/1999/xlink" x="0px" y="0px"
	 width="162.166px" height="36.335px" viewBox="0 0 162.166 36.335" enable-background="new 0 0 162.166 36.335"
	 xml:space="preserve">
<g>
	<defs>
		<rect id="SVGID_1_" x="0.755" width="160.656" height="35"/>
	</defs>
	<clipPath id="SVGID_2_">
		<use xlink:href="#SVGID_1_"  overflow="visible"/>
	</clipPath>
	<path clip-path="url(#SVGID_2_)" fill-rule="evenodd" clip-rule="evenodd" fill="#F4800D" d="M71.863,0
		c3.746,6.018,4.671,13.687,1.809,20.732c-4.743,11.677-18.137,17.333-29.813,12.588c-5.82-2.364-10.144-6.876-12.43-12.253
		c2.464,3.958,6.147,7.203,10.78,9.084c11.678,4.744,25.07-0.911,29.814-12.589C74.404,11.704,74.165,5.414,71.863,0"/>
	<path clip-path="url(#SVGID_2_)" fill-rule="evenodd" clip-rule="evenodd" fill="#006085" d="M16.276,6.407l-0.145,0.433
		c-0.032,0.112-0.168,0.225-0.408,0.336s-0.473,0.168-0.697,0.168h-1.634c-0.224,0-0.412-0.048-0.564-0.144
		c-0.152-0.096-0.212-0.208-0.18-0.336l0.144-0.457c0.112-0.625-0.544-0.937-1.971-0.937c-1.424,0-2.306,0.312-2.643,0.937
		l-1.394,3.892c-0.111,0.609,0.553,0.913,1.994,0.913c3.364,0,5.047,0.689,5.047,2.066c0,0.113-0.017,0.209-0.049,0.289l-1.369,3.94
		c-0.833,1.538-3.044,2.306-6.632,2.306c-1.97,0-3.371-0.256-4.204-0.769c-0.545-0.336-0.817-0.752-0.817-1.25
		c0-0.112,0.017-0.208,0.049-0.288l0.168-0.457c0.112-0.304,0.48-0.457,1.105-0.457h1.609c0.225,0,0.412,0.044,0.564,0.132
		c0.152,0.088,0.213,0.188,0.181,0.301l-0.121,0.48c-0.111,0.625,0.546,0.937,1.971,0.937s2.307-0.312,2.643-0.937l1.37-3.892
		c0.112-0.641-0.545-0.961-1.971-0.961c-1.97,0-3.379-0.264-4.229-0.792c-0.545-0.336-0.816-0.753-0.816-1.25
		c0-0.112,0.016-0.208,0.048-0.288l1.37-3.917c0.832-1.554,3.043-2.331,6.63-2.331c1.954,0,3.349,0.256,4.181,0.769
		c0.545,0.353,0.817,0.769,0.817,1.249C16.324,6.223,16.308,6.327,16.276,6.407"/>
	<path clip-path="url(#SVGID_2_)" fill-rule="evenodd" clip-rule="evenodd" fill="#006085" d="M23.438,14.527
		c0.048-0.112-0.016-0.22-0.192-0.324c-0.176-0.104-0.385-0.156-0.624-0.156h-1.394c-1.426-0.033-2.308,0.272-2.644,0.913
		L17.84,17.29c-0.113,0.625,0.544,0.937,1.97,0.937s2.307-0.312,2.643-0.937l0.961-2.763H23.438z M28.699,9.41l-1.058,3.027
		c-0.111,0.32-0.48,0.473-1.104,0.457c-0.257,0-0.473,0.06-0.649,0.18c-0.176,0.121-0.264,0.253-0.264,0.396
		c0,0.225,0.184,0.336,0.553,0.336c0.224,0,0.42,0.048,0.588,0.144c0.169,0.097,0.244,0.208,0.229,0.336l-1.058,3.004
		c-0.833,1.537-3.043,2.306-6.631,2.306c-1.97,0-3.371-0.256-4.205-0.769c-0.544-0.336-0.816-0.752-0.816-1.249
		c0-0.112,0.016-0.208,0.048-0.288l0.794-2.307c0.832-1.538,3.034-2.299,6.606-2.282c1.426,0,2.307-0.321,2.643-0.961l0.842-2.306
		c0.096-0.625-0.569-0.937-1.994-0.937c-1.426,0-2.299,0.304-2.619,0.913L20.41,9.89c-0.128,0.32-0.48,0.473-1.058,0.457h-1.634
		c-0.224,0-0.416-0.048-0.576-0.144c-0.16-0.097-0.225-0.201-0.192-0.313l0.168-0.48c0.802-1.538,2.996-2.307,6.584-2.307
		c1.97,0,3.379,0.265,4.228,0.793c0.545,0.336,0.816,0.752,0.816,1.249C28.746,9.241,28.731,9.329,28.699,9.41L28.699,9.41z"/>
	<path clip-path="url(#SVGID_2_)" fill-rule="evenodd" clip-rule="evenodd" fill="#006085" d="M43.111,7.56l-3.389,9.73
		c-0.832,1.538-3.043,2.307-6.631,2.307c-1.97,0-3.371-0.256-4.204-0.769c-0.545-0.336-0.817-0.752-0.817-1.249
		c0-0.112,0.017-0.208,0.048-0.289l3.437-9.706c0.016-0.112,0.14-0.216,0.372-0.313c0.232-0.096,0.461-0.144,0.685-0.144h1.61
		c0.593,0.016,0.856,0.16,0.793,0.433l-3.388,9.73c-0.112,0.625,0.545,0.938,1.97,0.938c1.426,0,2.307-0.313,2.643-0.938
		l3.412-9.706c0.017-0.112,0.141-0.216,0.372-0.313c0.232-0.096,0.461-0.144,0.685-0.144h1.634
		C42.919,7.143,43.175,7.287,43.111,7.56"/>
	<path clip-path="url(#SVGID_2_)" fill-rule="evenodd" clip-rule="evenodd" fill="#006085" d="M66.172,9.434
		c0.096-0.625-0.568-0.937-1.994-0.937s-2.299,0.304-2.619,0.913l-1.009,2.787c-0.032,0.128,0.031,0.244,0.191,0.349
		c0.16,0.104,0.353,0.156,0.577,0.156h1.37c1.425,0.032,2.306-0.289,2.642-0.961L66.172,9.434z M69.655,9.41l-0.841,2.306
		c-0.833,1.538-3.043,2.298-6.631,2.282c-1.426,0-2.307,0.321-2.644,0.961l-0.744,2.331c-0.112,0.625,0.544,0.937,1.97,0.937
		s2.307-0.312,2.644-0.937l0.12-0.48c0.063-0.289,0.44-0.433,1.129-0.433h1.609c0.225,0,0.412,0.044,0.564,0.132
		s0.213,0.188,0.181,0.301l-0.121,0.48c-0.832,1.537-3.042,2.306-6.631,2.306c-1.97,0-3.371-0.256-4.204-0.769
		c-0.545-0.336-0.817-0.752-0.817-1.249c0-0.112,0.018-0.208,0.049-0.288l1.105-3.004c0.016-0.112,0.132-0.215,0.348-0.312
		c0.217-0.096,0.44-0.14,0.673-0.132c0.232,0.008,0.437-0.052,0.613-0.18c0.176-0.128,0.264-0.272,0.264-0.433
		c0-0.24-0.185-0.36-0.553-0.36c-0.576-0.016-0.816-0.16-0.721-0.433l1.058-3.027c0.801-1.538,2.995-2.307,6.583-2.307
		c1.97,0,3.379,0.265,4.229,0.793c0.544,0.336,0.816,0.752,0.816,1.249C69.703,9.241,69.688,9.329,69.655,9.41L69.655,9.41z"/>
	<path clip-path="url(#SVGID_2_)" fill-rule="evenodd" clip-rule="evenodd" fill="#006085" d="M91.548,5.43l-0.145,0.433
		c-0.031,0.112-0.168,0.224-0.409,0.336c-0.239,0.112-0.471,0.168-0.695,0.168h-1.634c-0.225,0-0.413-0.048-0.565-0.145
		s-0.212-0.208-0.18-0.336l0.145-0.457c0.111-0.625-0.545-0.937-1.971-0.937S83.787,4.805,83.45,5.43l-1.393,3.893
		c-0.112,0.608,0.553,0.913,1.994,0.913c3.363,0,5.045,0.689,5.045,2.066c0,0.112-0.016,0.208-0.048,0.288L87.68,16.53
		c-0.833,1.537-3.044,2.306-6.632,2.306c-1.97,0-3.371-0.256-4.204-0.769c-0.544-0.337-0.816-0.753-0.816-1.25
		c0-0.112,0.016-0.208,0.048-0.288l0.168-0.457c0.111-0.305,0.48-0.457,1.105-0.457h1.609c0.224,0,0.412,0.044,0.565,0.132
		c0.151,0.088,0.211,0.188,0.179,0.301l-0.119,0.48c-0.112,0.625,0.544,0.937,1.971,0.937c1.425,0,2.306-0.312,2.642-0.937
		l1.37-3.893c0.111-0.641-0.545-0.961-1.97-0.961c-1.971,0-3.38-0.265-4.229-0.793c-0.545-0.336-0.817-0.753-0.817-1.25
		c0-0.112,0.016-0.208,0.048-0.288l1.369-3.917c0.833-1.553,3.044-2.331,6.632-2.331c1.954,0,3.348,0.256,4.18,0.769
		c0.545,0.353,0.817,0.77,0.817,1.25C91.596,5.246,91.579,5.35,91.548,5.43"/>
	<path clip-path="url(#SVGID_2_)" fill-rule="evenodd" clip-rule="evenodd" fill="#006085" d="M100.728,8.673
		c0.096-0.625-0.568-0.937-1.994-0.937s-2.299,0.305-2.619,0.913l-1.008,2.787c-0.032,0.128,0.031,0.244,0.191,0.348
		s0.353,0.157,0.576,0.157h1.37c1.426,0.031,2.306-0.289,2.643-0.961L100.728,8.673z M104.211,8.649l-0.841,2.307
		c-0.832,1.538-3.042,2.298-6.631,2.282c-1.426,0-2.306,0.32-2.644,0.961l-0.744,2.331c-0.111,0.625,0.545,0.937,1.971,0.937
		c1.425,0,2.306-0.312,2.643-0.937l0.12-0.48c0.064-0.289,0.439-0.433,1.129-0.433h1.609c0.225,0,0.412,0.044,0.564,0.132
		c0.153,0.088,0.212,0.188,0.181,0.301l-0.12,0.48c-0.833,1.538-3.043,2.307-6.631,2.307c-1.971,0-3.372-0.256-4.205-0.769
		c-0.544-0.337-0.816-0.753-0.816-1.25c0-0.112,0.016-0.208,0.048-0.288l1.105-3.003c0.016-0.112,0.132-0.216,0.349-0.312
		c0.216-0.096,0.44-0.14,0.672-0.132c0.232,0.008,0.438-0.052,0.612-0.18c0.178-0.128,0.265-0.272,0.265-0.432
		c0-0.24-0.184-0.361-0.552-0.361c-0.577-0.016-0.817-0.16-0.721-0.432l1.057-3.027c0.801-1.538,2.995-2.307,6.583-2.307
		c1.97,0,3.38,0.264,4.229,0.793c0.545,0.336,0.816,0.753,0.816,1.25C104.259,8.481,104.244,8.569,104.211,8.649"/>
	<path clip-path="url(#SVGID_2_)" fill-rule="evenodd" clip-rule="evenodd" fill="#006085" d="M116.651,8.649l-0.192,0.48
		c-0.128,0.32-0.473,0.473-1.032,0.457h-1.635c-0.24,0-0.444-0.048-0.612-0.144s-0.229-0.2-0.18-0.313l0.191-0.457
		c0.017-0.064,0.024-0.136,0.024-0.216c0-0.48-0.368-0.721-1.105-0.721c-1.426-0.016-2.298,0.289-2.619,0.913l-3.46,9.706
		c-0.111,0.321-0.472,0.481-1.081,0.481h-1.634c-0.224,0-0.412-0.048-0.563-0.145c-0.153-0.096-0.212-0.2-0.181-0.312l3.436-9.73
		c0.801-1.538,2.995-2.307,6.583-2.307c2.739,0,4.108,0.648,4.108,1.946C116.699,8.433,116.684,8.553,116.651,8.649"/>
	<path clip-path="url(#SVGID_2_)" fill-rule="evenodd" clip-rule="evenodd" fill="#006085" d="M129.287,6.799l-0.288,0.937
		c-0.608,1.954-1.778,3.972-3.507,6.054c-1.25,1.49-2.716,2.931-4.396,4.325c-1.395,1.153-2.123,1.698-2.188,1.634
		c-1.474-2.387-2.211-4.965-2.211-7.737c0-1.474,0.241-2.899,0.722-4.276l0.312-0.913c0.017-0.112,0.142-0.216,0.373-0.313
		c0.232-0.096,0.46-0.144,0.685-0.144h1.61c0.592,0.016,0.857,0.16,0.792,0.432l-0.312,0.937c-0.608,1.81-0.913,3.5-0.913,5.069
		c0,1.138,0.144,2.074,0.432,2.811c0.673-0.608,1.306-1.281,1.898-2.018c1.426-1.778,2.499-3.732,3.22-5.862l0.312-0.913
		c0.017-0.112,0.141-0.216,0.373-0.313c0.232-0.096,0.461-0.144,0.685-0.144h1.634c0.225,0,0.417,0.044,0.577,0.132
		C129.256,6.587,129.319,6.688,129.287,6.799"/>
	<path clip-path="url(#SVGID_2_)" fill-rule="evenodd" clip-rule="evenodd" fill="#006085" d="M134.789,6.799l-4.085,11.556
		c-0.112,0.321-0.473,0.481-1.081,0.481h-1.634c-0.225,0-0.413-0.049-0.565-0.145c-0.151-0.096-0.212-0.2-0.18-0.312l4.084-11.557
		c0.017-0.112,0.141-0.216,0.373-0.313c0.232-0.096,0.46-0.144,0.685-0.144h1.609C134.588,6.383,134.853,6.527,134.789,6.799
		 M135.917,3.58l-0.144,0.433c-0.032,0.112-0.169,0.224-0.409,0.336c-0.239,0.112-0.472,0.168-0.696,0.168h-1.634
		c-0.224,0-0.408-0.048-0.553-0.144c-0.145-0.096-0.2-0.208-0.167-0.336l0.119-0.457c0.033-0.112,0.169-0.22,0.408-0.324
		c0.241-0.104,0.48-0.157,0.722-0.157h1.609c0.224,0,0.412,0.052,0.565,0.157C135.89,3.36,135.95,3.468,135.917,3.58"/>
	<path clip-path="url(#SVGID_2_)" fill-rule="evenodd" clip-rule="evenodd" fill="#006085" d="M39.379,5.341l-0.144,0.662
		c-0.025,0.114-0.169,0.224-0.409,0.337c-0.24,0.112-0.473,0.168-0.696,0.168h-1.634c-0.225,0-0.408-0.047-0.553-0.144
		c-0.144-0.096-0.2-0.208-0.168-0.336l0.119-0.457c0.032-0.111,0.17-0.22,0.409-0.324c0.24-0.104,0.482-0.123,0.721-0.156
		l1.61-0.229c0.222-0.032,0.412,0.052,0.564,0.156C39.351,5.121,39.411,5.229,39.379,5.341"/>
	<path clip-path="url(#SVGID_2_)" fill-rule="evenodd" clip-rule="evenodd" fill="#006085" d="M148.413,8.65l-0.191,0.48
		c-0.129,0.321-0.48,0.473-1.058,0.457h-1.634c-0.239,0-0.444-0.048-0.612-0.144c-0.168-0.097-0.229-0.2-0.181-0.313l0.192-0.456
		c0.097-0.625-0.568-0.938-1.994-0.938c-1.425,0-2.298,0.304-2.619,0.913l-2.763,7.88c-0.112,0.625,0.545,0.937,1.97,0.937
		c1.427,0,2.308-0.312,2.644-0.937l0.12-0.48c0.064-0.288,0.44-0.433,1.129-0.433l1.61,0c0.224,0,0.411,0.044,0.564,0.132
		c0.152,0.088,0.212,0.188,0.18,0.3l-0.119,0.48c-0.834,1.538-3.044,2.307-6.632,2.307c-1.97,0-3.371-0.256-4.204-0.769
		c-0.545-0.337-0.816-0.753-0.816-1.25c0-0.112,0.015-0.208,0.047-0.288l2.787-7.88c0.801-1.538,2.995-2.307,6.583-2.307
		c1.971,0,3.38,0.265,4.229,0.793c0.545,0.336,0.816,0.753,0.816,1.25C148.462,8.481,148.446,8.569,148.413,8.65"/>
	<path clip-path="url(#SVGID_2_)" fill-rule="evenodd" clip-rule="evenodd" fill="#006085" d="M157.878,8.674
		c0.097-0.625-0.568-0.938-1.993-0.938c-1.426,0-2.299,0.305-2.618,0.914l-1.01,2.787c-0.032,0.128,0.032,0.244,0.192,0.348
		s0.353,0.156,0.576,0.156h1.369c1.426,0.032,2.307-0.288,2.644-0.961L157.878,8.674z M161.362,8.65l-0.841,2.306
		c-0.833,1.538-3.043,2.298-6.632,2.282c-1.425,0-2.306,0.321-2.643,0.962l-0.744,2.33c-0.112,0.625,0.544,0.937,1.97,0.937
		s2.308-0.312,2.643-0.937l0.121-0.48c0.063-0.288,0.44-0.432,1.129-0.432h1.609c0.225,0,0.413,0.044,0.564,0.132
		c0.153,0.088,0.212,0.188,0.181,0.3l-0.12,0.48c-0.833,1.538-3.043,2.307-6.631,2.307c-1.971,0-3.372-0.256-4.205-0.77
		c-0.545-0.337-0.816-0.753-0.816-1.25c0-0.112,0.016-0.208,0.048-0.288l1.105-3.002c0.016-0.113,0.131-0.216,0.348-0.313
		c0.217-0.096,0.441-0.14,0.673-0.132c0.232,0.008,0.437-0.052,0.612-0.181c0.177-0.128,0.265-0.272,0.265-0.432
		c0-0.24-0.185-0.36-0.553-0.36c-0.576-0.016-0.816-0.16-0.72-0.433l1.058-3.027c0.8-1.538,2.994-2.307,6.582-2.307
		c1.971,0,3.379,0.265,4.228,0.793c0.545,0.336,0.818,0.753,0.818,1.25C161.411,8.481,161.395,8.569,161.362,8.65"/>
	<path clip-path="url(#SVGID_2_)" fill-rule="evenodd" clip-rule="evenodd" fill="#006085" d="M52.145,8.977
		c0.032-0.128-0.028-0.24-0.181-0.336c-0.151-0.096-0.348-0.144-0.588-0.144h-1.394c-1.426,0-2.299,0.304-2.619,0.913l-2.763,7.88
		c-0.112,0.625,0.545,0.937,1.97,0.937c1.426,0,2.307-0.313,2.643-0.937L52.145,8.977z M52.696,17.291
		c-0.832,1.538-3.043,2.306-6.631,2.306c-1.97,0-3.371-0.256-4.204-0.769c-0.544-0.336-0.817-0.753-0.817-1.25
		c0-0.112,0.017-0.208,0.049-0.288l2.787-7.88c0.801-1.538,2.995-2.299,6.583-2.282c1.489,0,2.146-0.456,2.619-0.938
		c0.034-0.035,0.068-0.069,0.103-0.103l1.698-4.805c0.016-0.112,0.14-0.216,0.372-0.312c0.231-0.097,0.46-0.144,0.685-0.144h1.61
		c0.592,0.016,0.856,0.16,0.792,0.432C56.454,6.6,54.574,11.944,52.696,17.291"/>
	<path clip-path="url(#SVGID_2_)" fill="#F4800D" d="M76.699,29.079h-1.004l1.98-5.91h0.954l0.958,2.759l2.803-2.759h1.037
		l-1.98,5.91h-1.036l0.943-2.816c0.168-0.498,0.337-0.995,0.514-1.493h-0.016c-0.36,0.367-0.749,0.759-1.155,1.159l-1.623,1.6
		l-0.499-1.437c-0.145-0.424-0.305-0.905-0.435-1.322h-0.017c-0.166,0.53-0.342,1.077-0.513,1.592L76.699,29.079z"/>
	<path clip-path="url(#SVGID_2_)" fill="#F4800D" d="M84.084,25.676c0.499-0.465,1.106-0.702,1.702-0.702
		c0.955,0,1.616,0.612,1.452,1.648c-0.034,0.22-0.112,0.506-0.203,0.718h-2.88c-0.073,0.669,0.346,1.012,1.015,1.012
		c0.456,0,0.988-0.164,1.356-0.327l-0.307,0.906c-0.376,0.163-0.886,0.237-1.285,0.237c-1.11,0-1.955-0.588-1.76-1.82
		C83.271,26.736,83.599,26.116,84.084,25.676 M84.37,26.655h1.949c0.088-0.555-0.162-0.881-0.692-0.881
		C85.08,25.773,84.635,26.116,84.37,26.655"/>
	<path clip-path="url(#SVGID_2_)" fill="#F4800D" d="M88.882,25.063h0.987l-1.346,4.016h-0.987L88.882,25.063z M89.961,23.088
		c0.343,0,0.555,0.261,0.504,0.579c-0.057,0.359-0.402,0.637-0.762,0.637c-0.334,0-0.537-0.261-0.487-0.579
		C89.272,23.366,89.61,23.088,89.961,23.088"/>
	<path clip-path="url(#SVGID_2_)" fill="#F4800D" d="M90.24,27.308c0.086-0.547,0.383-1.184,0.934-1.673
		c0.476-0.424,1.075-0.661,1.721-0.661c1.125,0,1.852,0.718,1.671,1.861c-0.087,0.547-0.384,1.183-0.934,1.673
		c-0.476,0.425-1.076,0.662-1.721,0.662C90.785,29.169,90.059,28.451,90.24,27.308 M93.012,27.936
		c0.316-0.294,0.5-0.686,0.556-1.036c0.097-0.604-0.207-1.061-0.867-1.061c-0.335,0-0.647,0.122-0.907,0.367
		c-0.315,0.294-0.5,0.686-0.556,1.037c-0.096,0.604,0.207,1.061,0.868,1.061C92.44,28.304,92.753,28.181,93.012,27.936"/>
	<path clip-path="url(#SVGID_2_)" fill="#F4800D" d="M95.294,27.757c0.385,0.351,0.96,0.579,1.515,0.579
		c0.204,0,0.397-0.032,0.528-0.138c0.083-0.065,0.157-0.172,0.177-0.294c0.056-0.351-0.418-0.351-0.916-0.498
		c-0.656-0.188-1-0.49-0.911-1.053c0.059-0.367,0.277-0.718,0.604-0.971c0.354-0.278,0.814-0.408,1.305-0.408
		c0.489,0,1.056,0.13,1.491,0.367l-0.309,0.922c-0.358-0.261-0.917-0.448-1.382-0.448c-0.195,0-0.348,0.032-0.465,0.106
		c-0.118,0.073-0.201,0.188-0.221,0.31c-0.054,0.343,0.427,0.343,0.904,0.474c0.673,0.179,1.006,0.498,0.913,1.085
		c-0.052,0.327-0.228,0.662-0.539,0.931c-0.378,0.327-0.879,0.449-1.4,0.449c-0.556,0-1.121-0.139-1.619-0.441L95.294,27.757z"/>
	<path clip-path="url(#SVGID_2_)" fill="#F4800D" d="M102.702,25.651c0.53-0.465,1.167-0.678,1.787-0.678
		c0.351,0,0.625,0.074,0.855,0.164l0.771-2.293h0.987l-2.09,6.236h-0.979l0.106-0.311l-0.016-0.008
		c-0.308,0.245-0.676,0.408-1.125,0.408c-0.897,0-1.457-0.693-1.293-1.73C101.807,26.818,102.15,26.141,102.702,25.651
		 M103.434,28.344c0.334,0,0.689-0.18,0.98-0.424l0.639-1.918c-0.179-0.106-0.449-0.203-0.743-0.203
		c-0.399,0-0.763,0.179-1.044,0.465c-0.283,0.293-0.478,0.693-0.537,1.069C102.63,27.961,102.919,28.344,103.434,28.344"/>
	<path clip-path="url(#SVGID_2_)" fill="#F4800D" d="M107.635,25.676c0.498-0.465,1.106-0.702,1.702-0.702
		c0.954,0,1.616,0.612,1.452,1.648c-0.035,0.22-0.113,0.506-0.203,0.718h-2.881c-0.073,0.669,0.347,1.012,1.015,1.012
		c0.457,0,0.989-0.164,1.357-0.327l-0.307,0.906c-0.377,0.163-0.886,0.237-1.286,0.237c-1.109,0-1.954-0.588-1.759-1.82
		C106.822,26.736,107.148,26.116,107.635,25.676 M107.92,26.655h1.95c0.088-0.555-0.162-0.881-0.692-0.881
		C108.631,25.773,108.185,26.116,107.92,26.655"/>
	<path clip-path="url(#SVGID_2_)" fill="#F4800D" d="M115.204,23.169h1.623c0.751,0,1.286,0.123,1.648,0.465
		c0.306,0.286,0.46,0.702,0.381,1.2c-0.077,0.49-0.383,1.078-0.911,1.478c-0.49,0.367-1.115,0.547-1.963,0.547h-0.979l-0.742,2.22
		h-1.036L115.204,23.169z M116.258,25.994c0.555,0,0.886-0.13,1.11-0.31c0.214-0.171,0.388-0.44,0.436-0.743
		c0.041-0.261-0.024-0.465-0.182-0.604c-0.187-0.163-0.492-0.245-0.933-0.245h-0.759l-0.635,1.901H116.258z"/>
	<path clip-path="url(#SVGID_2_)" fill="#F4800D" d="M122.094,29.079h-0.979l0.107-0.318l-0.015-0.008
		c-0.307,0.237-0.694,0.417-1.143,0.417c-0.873,0-1.441-0.686-1.276-1.73c0.099-0.62,0.442-1.298,1.01-1.788
		c0.548-0.473,1.191-0.678,1.812-0.678c0.637,0,1.222,0.221,1.696,0.474L122.094,29.079z M122.143,25.985
		c-0.18-0.098-0.461-0.179-0.746-0.179c-0.441,0-0.78,0.188-1.042,0.449c-0.311,0.31-0.499,0.727-0.557,1.094
		c-0.102,0.636,0.209,0.996,0.699,0.996c0.326,0,0.678-0.163,0.998-0.432L122.143,25.985z"/>
	<path clip-path="url(#SVGID_2_)" fill="#F4800D" d="M124.787,25.626c0.48-0.408,1.099-0.653,1.784-0.653
		c0.587,0,1.203,0.18,1.678,0.433l-1.193,3.566c-0.462,1.371-1.376,1.992-2.592,1.992c-0.497,0-0.964-0.098-1.398-0.343l0.324-0.963
		c0.329,0.245,0.794,0.449,1.267,0.449c0.604,0,1.128-0.318,1.383-1.053l0.104-0.302l-0.015-0.008
		c-0.289,0.18-0.586,0.302-0.978,0.302c-0.906,0-1.501-0.669-1.338-1.697C123.908,26.745,124.268,26.075,124.787,25.626
		 M125.565,28.229c0.286,0,0.58-0.105,0.844-0.277l0.667-1.991c-0.167-0.082-0.459-0.146-0.72-0.146
		c-0.433,0-0.763,0.179-1.013,0.416c-0.29,0.286-0.482,0.677-0.538,1.028C124.713,27.846,125.02,28.229,125.565,28.229"/>
	<path clip-path="url(#SVGID_2_)" fill="#F4800D" d="M132.041,29.079h-0.979l0.107-0.318l-0.015-0.008
		c-0.308,0.237-0.694,0.417-1.143,0.417c-0.873,0-1.441-0.686-1.276-1.73c0.098-0.62,0.441-1.298,1.009-1.788
		c0.548-0.473,1.192-0.678,1.813-0.678c0.637,0,1.222,0.221,1.695,0.474L132.041,29.079z M132.09,25.985
		c-0.18-0.098-0.461-0.179-0.746-0.179c-0.441,0-0.78,0.188-1.042,0.449c-0.311,0.31-0.499,0.727-0.557,1.094
		c-0.102,0.636,0.209,0.996,0.698,0.996c0.326,0,0.679-0.163,0.999-0.432L132.09,25.985z"/>
	<path clip-path="url(#SVGID_2_)" fill="#F4800D" d="M134.742,25.063h0.979l-0.151,0.441l0.015,0.008
		c0.371-0.277,0.869-0.539,1.391-0.539c0.506,0,0.88,0.27,0.992,0.693c0.541-0.432,1.113-0.693,1.651-0.693
		c0.734,0,1.147,0.481,1.033,1.208c-0.025,0.156-0.07,0.335-0.143,0.54l-0.79,2.358h-0.987l0.771-2.293
		c0.06-0.171,0.095-0.294,0.109-0.384c0.054-0.342-0.108-0.555-0.483-0.555c-0.367,0-0.774,0.204-1.184,0.522
		c-0.023,0.099-0.075,0.27-0.104,0.352l-0.79,2.358h-0.987l0.771-2.293c0.06-0.171,0.086-0.286,0.102-0.384
		c0.054-0.342-0.101-0.555-0.483-0.555c-0.367,0-0.767,0.204-1.157,0.506l-0.913,2.727h-0.986L134.742,25.063z"/>
	<path clip-path="url(#SVGID_2_)" fill="#F4800D" d="M142.332,25.676c0.498-0.465,1.106-0.702,1.701-0.702
		c0.955,0,1.617,0.612,1.453,1.648c-0.035,0.22-0.113,0.506-0.204,0.718h-2.88c-0.073,0.669,0.346,1.012,1.015,1.012
		c0.457,0,0.988-0.164,1.357-0.327l-0.308,0.906c-0.376,0.163-0.886,0.237-1.285,0.237c-1.109,0-1.955-0.588-1.76-1.82
		C141.52,26.736,141.846,26.116,142.332,25.676 M142.617,26.655h1.95c0.087-0.555-0.162-0.881-0.692-0.881
		C143.328,25.773,142.882,26.116,142.617,26.655"/>
	<path clip-path="url(#SVGID_2_)" fill="#F4800D" d="M147.129,25.063h0.979l-0.152,0.441l0.016,0.008
		c0.458-0.318,0.941-0.539,1.432-0.539c0.733,0,1.147,0.481,1.027,1.24c-0.022,0.139-0.064,0.302-0.141,0.522l-0.787,2.343h-0.986
		l0.758-2.261c0.06-0.171,0.087-0.294,0.103-0.392c0.054-0.343-0.071-0.58-0.471-0.58c-0.376,0-0.818,0.221-1.223,0.506
		l-0.913,2.727h-0.987L147.129,25.063z"/>
	<path clip-path="url(#SVGID_2_)" fill="#F4800D" d="M152.606,27.422c-0.048,0.147-0.085,0.278-0.104,0.392
		c-0.049,0.311,0.075,0.506,0.442,0.506c0.163,0,0.349-0.041,0.504-0.09l-0.291,0.857c-0.163,0.049-0.363,0.082-0.567,0.082
		c-0.702,0-1.251-0.343-1.119-1.175c0.021-0.139,0.069-0.335,0.144-0.547l0.514-1.542h-0.693l0.279-0.841h0.694l0.372-1.118
		l1.005-0.058l-0.391,1.175h1.118l-0.28,0.841h-1.118L152.606,27.422z"/>
	<path clip-path="url(#SVGID_2_)" fill="#F4800D" d="M154.485,27.308c0.086-0.547,0.383-1.184,0.934-1.673
		c0.476-0.424,1.075-0.661,1.721-0.661c1.125,0,1.852,0.718,1.671,1.861c-0.087,0.547-0.384,1.183-0.934,1.673
		c-0.476,0.425-1.076,0.662-1.721,0.662C155.03,29.169,154.304,28.451,154.485,27.308 M157.257,27.936
		c0.316-0.294,0.5-0.686,0.556-1.036c0.097-0.604-0.207-1.061-0.867-1.061c-0.335,0-0.647,0.122-0.907,0.367
		c-0.315,0.294-0.5,0.686-0.556,1.037c-0.096,0.604,0.207,1.061,0.868,1.061C156.686,28.304,156.998,28.181,157.257,27.936"/>
</g>
</svg>
