<?xml version="1.0" encoding="UTF-8"?><svg id="Camada_1" xmlns="http://www.w3.org/2000/svg" viewBox="0 0 79.64 32.85"><defs><style>.cls-1{fill:#214063;}.cls-2{fill:#0092ac;}.cls-3{fill:#0093ad;}</style></defs><g><path class="cls-1" d="M27.14,12.09s.15-5.49,0-6.88-.69-2.1-.69-2.1C24.55,.09,19.23,.02,19.23,.02H10.82l-1.12,.05C1.14,.65,1.08,5.63,1.08,5.63c0,0-.1,4.8,0,7.3,.1,2.49,1.35,3.58,2.77,4.68,1.43,1.11,3.28,1.17,4.4,1.35,1.13,.18,4.43,.25,4.43,.25h14.46v-4.51s-13.33,.36-17.16-.15-3.66-2.46-3.66-2.46H27.14ZM6.15,7.59v-1.82s.08-1.18,3.1-1.3c3.02-.12,9.97-.02,9.97-.02,0,0,2.91,.1,2.93,1.51,.02,1.4,0,1.64,0,1.64H6.15Z"/><path class="cls-1" d="M78.62,5.99c-.14-1.39-.77-2.87-.77-2.87C75.96-.15,71.07,.02,71.07,.02h-7.9l-1.05,.05c-7.95-.22-8.1,5.57-8.1,5.57,0,0-.09,4.8,0,7.3,.09,2.49,1.17,4.26,3.24,5.29,1.82,.9,4.1,.96,4.1,.96,0,0,8.12,.09,9.57,.03,.62-.02,3.86,.01,5.65-1.35,2.27-1.73,2.07-3.94,2.07-3.94,0,0,.1-6.54-.04-7.92Zm-5.44,6.85s-.04,2.17-2.41,2.26c-2.37,.09-9.18-.06-9.18-.06,0,0-1.91-.12-2.1-2.15V6.25s.12-2.14,2.64-2.15c2.52-.01,8.46,0,8.46,0,0,0,2.57-.02,2.58,2.33,.01,2.35,0,6.41,0,6.41Z"/><path class="cls-1" d="M27.33,.02h6.13l7.04,14.12s.92,2.35,3.7,3.58c0,0-1.39,2.33-6.17,1.19,0,0-1.17-.48-1.67-1.13s-1.71-2.96-4.84-9.35C28.38,2.04,27.33,.02,27.33,.02Z"/><path class="cls-3" d="M41.27,11.72s.54,2.53,4.01,4.25L53.29,0h-6.15l-5.87,11.72Z"/></g><g><path class="cls-2" d="M.27,32.69c-.17-.11-.25-.21-.27-.29,.54-1.57,.94-2.8,1.19-3.69,.25-.89,.46-1.83,.63-2.84,.17-1,.38-2.54,.65-4.61,.02-.17,.06-.29,.1-.34,.04-.06,.16-.08,.34-.08,.36,0,.63,.1,.81,.29,.18,.19,.28,.42,.28,.69,0,.29-.09,.87-.26,1.73,.39-.6,.84-1.1,1.35-1.5,.51-.4,1.06-.6,1.65-.6s1.1,.21,1.49,.62c.39,.41,.59,.94,.59,1.59s-.19,1.34-.58,2.07c-.39,.73-.92,1.34-1.61,1.83-.69,.49-1.45,.74-2.28,.74-.38,0-.69-.05-.93-.15-.24-.1-.36-.21-.36-.33s.15-.18,.44-.18c.74-.01,1.4-.21,1.99-.6,.59-.39,1.05-.87,1.38-1.45,.33-.58,.5-1.15,.5-1.71,0-.39-.09-.72-.26-.98-.17-.26-.43-.39-.77-.39-.38,0-.77,.16-1.18,.47-.41,.31-.77,.69-1.09,1.13-.32,.44-.56,.85-.74,1.23-.21,.72-.48,1.77-.81,3.13-.36,1.51-.66,2.62-.91,3.32-.25,.71-.54,1.06-.87,1.06-.15,0-.3-.06-.47-.17Z"/><path class="cls-2" d="M9.33,28.14c-.29-.28-.43-.68-.43-1.2,0-.71,.26-1.51,.78-2.39,.52-.88,1.19-1.63,2-2.25,.81-.61,1.62-.92,2.43-.92,.54,0,.99,.14,1.35,.41,.36,.28,.54,.63,.54,1.06,0,.56-.35,.86-1.05,.88,.44,.14,.66,.32,.66,.55,0,.09-.04,.21-.13,.39-.09,.17-.18,.35-.29,.53-.2,.32-.35,.6-.46,.84-.11,.24-.17,.46-.17,.67,0,.18,.05,.34,.14,.47,.09,.13,.23,.19,.41,.19,.34,0,.78-.24,1.32-.72s1.05-1.2,1.56-2.15l.35,.35c-.45,1.02-1.02,1.84-1.69,2.46-.68,.62-1.36,.93-2.04,.93-.49,0-.87-.16-1.13-.49-.26-.33-.4-.7-.4-1.11-.55,.66-1.03,1.15-1.42,1.45-.39,.31-.81,.46-1.25,.46s-.79-.14-1.08-.42Zm2.96-1.45c.57-.62,1.22-1.43,1.94-2.42l.37-.5c.04-.06,.09-.09,.15-.09l.07,.02c.06-.2,.09-.42,.09-.68,0-.64-.26-.96-.77-.96s-1.1,.29-1.69,.87c-.59,.58-1.08,1.26-1.48,2.06-.4,.8-.6,1.48-.6,2.04,0,.21,.03,.36,.1,.45,.07,.09,.17,.14,.32,.14,.43,0,.93-.31,1.5-.93Z"/><path class="cls-2" d="M17.58,32.55c-.25-.2-.37-.49-.37-.87,0-.48,.18-.91,.54-1.31,.36-.39,.78-.73,1.26-1,.48-.28,1.11-.6,1.9-.97,.31-.77,.55-1.54,.74-2.3-.99,1.25-1.93,1.88-2.8,1.88-.49,0-.88-.17-1.17-.52-.29-.34-.43-.8-.43-1.36,0-.82,.27-1.6,.81-2.34,.54-.74,1.21-1.33,2.01-1.78,.8-.45,1.56-.67,2.28-.67,.38,0,.67,.07,.87,.2,.2,.14,.3,.3,.3,.5,0,.12-.04,.23-.11,.33-.07,.1-.14,.15-.18,.17-.12-.12-.25-.21-.37-.26-.12-.05-.28-.07-.46-.07-.6,0-1.18,.22-1.75,.67-.56,.45-1.02,.99-1.37,1.62-.35,.63-.52,1.2-.52,1.7,0,.25,.05,.43,.16,.56,.1,.13,.24,.19,.41,.19,.33,0,.74-.21,1.22-.64,.48-.43,.97-.98,1.45-1.66,.13-.69,.29-1.18,.48-1.48,.18-.3,.45-.45,.79-.45,.16,0,.34,.02,.53,.07,0,.32-.14,.96-.41,1.91-.27,.96-.6,1.95-.98,2.98,.61-.26,1.21-.66,1.78-1.21,.57-.55,.98-1.18,1.22-1.89l.33,.33c-.27,.77-.75,1.47-1.45,2.1-.69,.63-1.4,1.1-2.13,1.44-.56,1.36-1.15,2.44-1.76,3.23-.61,.79-1.26,1.19-1.96,1.19-.34,0-.64-.1-.88-.3Zm1.77-1.22c.39-.45,.8-1.14,1.22-2.06-.8,.39-1.42,.76-1.86,1.11-.44,.35-.66,.72-.66,1.11,0,.16,.03,.29,.1,.38,.07,.09,.15,.14,.25,.14,.25,0,.56-.23,.96-.68Z"/><path class="cls-2" d="M24.92,28.14c-.29-.28-.43-.68-.43-1.2,0-.71,.26-1.51,.78-2.39,.52-.88,1.19-1.63,2-2.25,.81-.61,1.62-.92,2.43-.92,.54,0,.99,.14,1.35,.41,.36,.28,.54,.63,.54,1.06,0,.56-.35,.86-1.05,.88,.44,.14,.66,.32,.66,.55,0,.09-.04,.21-.13,.39-.09,.17-.18,.35-.29,.53-.2,.32-.35,.6-.46,.84-.11,.24-.17,.46-.17,.67,0,.18,.05,.34,.14,.47,.09,.13,.23,.19,.41,.19,.34,0,.78-.24,1.32-.72s1.05-1.2,1.56-2.15l.35,.35c-.45,1.02-1.02,1.84-1.69,2.46-.68,.62-1.36,.93-2.04,.93-.49,0-.87-.16-1.13-.49-.26-.33-.4-.7-.4-1.11-.55,.66-1.03,1.15-1.42,1.45-.39,.31-.81,.46-1.25,.46s-.79-.14-1.08-.42Zm2.96-1.45c.57-.62,1.22-1.43,1.94-2.42l.37-.5c.04-.06,.09-.09,.15-.09l.07,.02c.06-.2,.09-.42,.09-.68,0-.64-.26-.96-.77-.96s-1.1,.29-1.69,.87c-.59,.58-1.08,1.26-1.48,2.06-.4,.8-.6,1.48-.6,2.04,0,.21,.03,.36,.1,.45,.07,.09,.17,.14,.32,.14,.43,0,.93-.31,1.5-.93Z"/><path class="cls-2" d="M41.72,27.86c-.25-.27-.37-.61-.37-1.03,0-.2,.03-.41,.08-.65,.05-.24,.12-.46,.19-.67,.16-.5,.24-.87,.24-1.1,0-.37-.14-.55-.42-.55s-.58,.2-.94,.59c-.36,.39-.83,1.04-1.44,1.93-.15,.22-.37,.6-.66,1.12l-.35,.63c-.22,0-.46-.04-.72-.13-.26-.09-.39-.2-.39-.35,0-.12,.13-.52,.39-1.18,.25-.64,.44-1.2,.6-1.68,.15-.48,.23-.88,.23-1.2,0-.37-.13-.55-.39-.55-.33,0-.76,.26-1.29,.78-.53,.52-1.05,1.18-1.57,1.99-.52,.8-.91,1.6-1.2,2.38-.22,0-.48-.06-.78-.18-.3-.12-.45-.23-.45-.31l1.18-4.71c.04-.13,.17-.25,.4-.36,.23-.1,.43-.16,.62-.16s.33,.06,.45,.17c.12,.11,.17,.26,.17,.44,0,.2-.09,.64-.26,1.33,.59-.81,1.2-1.48,1.82-2.02,.63-.53,1.22-.8,1.77-.8,.42,0,.72,.15,.89,.44s.27,.66,.27,1.1c0,.23-.02,.45-.07,.65-.05,.2-.13,.48-.24,.82,.86-1.26,1.75-1.9,2.67-1.9,.44,0,.76,.13,.97,.4,.2,.26,.3,.59,.3,.99s-.12,.95-.37,1.66c-.01,.05-.06,.21-.14,.48-.08,.27-.12,.49-.12,.66,0,.33,.15,.5,.46,.5,.44,0,.87-.28,1.3-.85,.42-.56,.82-1.24,1.19-2.03l.31,.39c-.36,.92-.81,1.71-1.37,2.38-.56,.66-1.2,.99-1.92,.99-.45,0-.8-.14-1.05-.41Z"/><path class="cls-2" d="M45.63,27.88c-.43-.42-.64-.95-.64-1.6,0-.71,.24-1.48,.72-2.31,.48-.83,1.09-1.52,1.84-2.08,.75-.56,1.49-.84,2.21-.84,.38,0,.7,.1,.96,.29,.26,.19,.39,.51,.39,.95,0,.59-.23,1.14-.68,1.67-.45,.52-1.04,.95-1.76,1.28-.72,.33-1.45,.54-2.2,.63-.02,.12-.04,.26-.04,.42,0,.32,.09,.64,.27,.96,.18,.32,.56,.48,1.15,.48,.75,0,1.51-.3,2.29-.91,.78-.61,1.41-1.37,1.89-2.27l.37,.29c-.49,1.1-1.19,1.99-2.11,2.67-.91,.68-1.86,1.01-2.84,1.01-.77,0-1.37-.21-1.8-.63Zm2.51-3.24c.55-.31,1.01-.68,1.39-1.13,.38-.45,.57-.89,.57-1.32,0-.13-.02-.23-.07-.28-.05-.05-.13-.07-.24-.07-.36,0-.75,.17-1.17,.51-.42,.34-.81,.76-1.17,1.28-.36,.52-.62,1.03-.79,1.55,.44-.05,.94-.23,1.48-.53Z"/><path class="cls-2" d="M56.69,27.71c-.26-.23-.39-.54-.39-.92,0-.16,.03-.34,.08-.55,.06-.21,.11-.42,.17-.63,.17-.56,.26-.98,.26-1.25,0-.25-.06-.43-.18-.54-.12-.12-.28-.17-.46-.17-.65,0-1.31,.41-1.97,1.22-.66,.82-1.37,1.85-2.14,3.1-.53,0-.93-.18-1.2-.53l.17-.46c.72-1.76,1.09-3.06,1.09-3.9,.1-.11,.24-.21,.42-.3s.36-.14,.53-.14c.21,0,.37,.05,.48,.15,.11,.1,.17,.23,.17,.41,0,.33-.1,.88-.31,1.64,.55-.74,1.13-1.34,1.72-1.8,.6-.47,1.18-.7,1.76-.7,.49,0,.87,.17,1.14,.51,.27,.34,.41,.74,.41,1.21,0,.27-.03,.53-.1,.77-.07,.25-.17,.52-.3,.83-.21,.52-.31,.9-.31,1.16,0,.18,.04,.32,.13,.41,.09,.09,.19,.13,.31,.13,.41,0,.84-.28,1.32-.84,.47-.56,.9-1.22,1.28-1.98l.31,.26c-.44,1.02-.93,1.82-1.46,2.41-.53,.59-1.14,.88-1.83,.88-.47,0-.83-.12-1.09-.35Z"/><path class="cls-2" d="M60.63,28.05c-.32-.33-.48-.81-.48-1.45,0-.48,.09-1.09,.28-1.83,.18-.74,.43-1.53,.74-2.37-.32-.06-.53-.12-.64-.17v-.57c.29,.04,.59,.07,.88,.09,.55-1.39,1.14-2.58,1.78-3.57,.63-.99,1.14-1.49,1.54-1.49,.13,0,.25,.05,.36,.15,.1,.1,.16,.23,.16,.39,0,.2-.09,.46-.26,.79-.17,.33-.45,.83-.85,1.51-.54,.91-.96,1.67-1.27,2.28,1.41,0,2.53-.04,3.37-.13v.61c-1.45,.15-2.68,.22-3.7,.22-.64,1.51-.96,2.74-.96,3.7,0,.5,.08,.86,.24,1.07,.16,.21,.41,.31,.75,.31,.61,0,1.24-.28,1.89-.84,.64-.56,1.21-1.32,1.68-2.27l.26,.18c-.5,1.14-1.15,2.07-1.95,2.79-.8,.72-1.63,1.08-2.49,1.08-.56,0-1.01-.16-1.33-.49Z"/><path class="cls-2" d="M65.71,27.79c-.23-.33-.34-.74-.34-1.23,0-.52,.11-1.05,.32-1.6,.21-.55,.49-1.01,.84-1.38,.34-.37,.69-.55,1.05-.55,.15,0,.34,.05,.57,.15,.07-.56,.27-1.03,.6-1.4,.33-.37,.78-.55,1.37-.55,.49,0,.85,.14,1.09,.41,.23,.28,.35,.64,.35,1.08s-.11,.92-.34,1.47c-.23,.55-.52,1.1-.87,1.66,.15,.07,.32,.11,.52,.11,.34,0,.71-.11,1.1-.34,.39-.23,.69-.57,.9-1.04l.33,.24c-.26,.59-.6,1.04-1.04,1.34-.44,.31-.89,.46-1.35,.46-.28,0-.59-.06-.92-.17-.45,.54-.95,.98-1.49,1.33-.54,.34-1.07,.52-1.58,.52s-.87-.17-1.1-.5Zm2.57-.81c.32-.25,.64-.56,.96-.94-.7-.61-1.07-1.52-1.1-2.71-.15,.07-.33,.3-.53,.68-.21,.38-.39,.8-.53,1.27-.15,.47-.22,.87-.22,1.22,0,.56,.21,.85,.63,.85,.22,0,.49-.12,.81-.37Zm2.2-2.95c.2-.49,.3-.93,.3-1.33,0-.54-.17-.81-.52-.81-.16,0-.33,.08-.5,.24-.17,.16-.31,.37-.42,.64-.11,.26-.17,.56-.17,.87,0,.28,.05,.6,.15,.97,.1,.36,.23,.64,.39,.84,.31-.45,.56-.93,.76-1.42Z"/><path class="cls-2" d="M72.68,27.89c-.41-.5-.62-1.09-.62-1.78,0-.48,.09-.81,.26-1,.17-.19,.37-.33,.58-.43,.21-.1,.34-.17,.38-.2,.79-.81,1.38-1.65,1.79-2.52v-.18c0-.45,.08-.79,.23-1.01,.15-.22,.35-.33,.6-.33,.27,0,.42,.12,.44,.37,0,.06-.02,.15-.05,.28-.03,.12-.05,.25-.05,.39,0,.23,.04,.48,.11,.74,.07,.26,.19,.61,.35,1.05,.2,.54,.35,1.01,.45,1.4,.1,.39,.16,.79,.16,1.2,0,.21-.02,.46-.07,.75,.83-.21,1.56-.9,2.17-2.08l.22,.17c-.25,.7-.59,1.26-1.02,1.69-.44,.43-.95,.69-1.54,.77-.2,.49-.52,.86-.96,1.11-.44,.25-.95,.38-1.53,.38-.86,0-1.49-.25-1.91-.75Zm2.47-.25c.21-.12,.38-.3,.49-.53-.48-.1-.92-.29-1.33-.56-.4-.28-.73-.57-.98-.89-.17,.04-.26,.2-.26,.5,0,.44,.12,.83,.37,1.17,.25,.34,.58,.51,1.01,.51,.25,0,.48-.06,.69-.18Zm.69-1.66c-.01-.39-.06-.78-.13-1.16-.07-.38-.18-.87-.33-1.47l-.17-.66c-.6,1.04-1.14,1.81-1.6,2.3,.21,.36,.5,.68,.88,.97,.38,.29,.81,.49,1.29,.6,.04-.11,.06-.3,.06-.57Z"/></g></svg>