<?xml version="1.0" encoding="UTF-8"?><svg id="Camada_1" xmlns="http://www.w3.org/2000/svg" viewBox="0 0 123.66 32.54"><defs><style>.cls-1{fill:#5a9bb5;}.cls-2{fill:#054769;}</style></defs><path class="cls-2" d="M45.49,11.29v2.12h-5.25v14.45h-2.48V13.41h-2.28v-2.16h2.28v-1.45c0-1.82,.43-3.21,1.3-4.15,.87-.94,2.11-1.42,3.72-1.42,.58,0,1.08,.03,1.5,.1s.83,.17,1.24,.32v2.16c-.45-.13-.86-.23-1.22-.31-.37-.07-.76-.11-1.19-.11-1.93,0-2.9,1.18-2.9,3.54v1.35h5.28Z"/><rect class="cls-2" x="50.3" y="11.23" width="2.48" height="16.64"/><path class="cls-2" d="M61.02,27.86h-2.48V11.23h2.48v2.9c.56-.9,1.29-1.67,2.19-2.3,.9-.63,2.07-.95,3.51-.95,1.01,0,1.9,.16,2.69,.48,.78,.32,1.45,.78,2,1.37,.55,.59,.97,1.29,1.26,2.11,.29,.82,.43,1.72,.43,2.7v10.33h-2.48v-9.72c0-1.54-.4-2.77-1.19-3.67-.79-.9-1.93-1.35-3.41-1.35-.71,0-1.37,.12-1.98,.37-.61,.25-1.14,.6-1.59,1.06-.45,.46-.8,1.01-1.05,1.66-.25,.64-.37,1.35-.37,2.12v9.53Z"/><path class="cls-1" d="M77.4,11.17h1.03v4.47c1.13-2.7,3.64-4.86,7.18-4.86,4.38,0,8.01,3.51,8.01,8.46v.06c0,4.92-3.64,8.46-8.01,8.46-3.57,0-6.08-2.12-7.18-4.79v9.56h-1.03V11.17Zm15.12,8.17v-.06c0-4.28-2.99-7.5-7.02-7.5s-7.14,3.28-7.14,7.47v.06c0,4.18,3.19,7.47,7.14,7.47s7.02-3.09,7.02-7.43Z"/><path class="cls-1" d="M96.46,19.28v-.06c0-4.76,3.28-8.43,7.76-8.43,4.89,0,7.43,4.18,7.43,8.53v.35h-14.06c.19,4.41,3.31,7.14,6.95,7.14,2.51,0,4.54-1.32,5.82-2.99l.77,.61c-1.48,1.93-3.67,3.35-6.63,3.35-4.38,0-8.05-3.31-8.05-8.5Zm14.06-.55c-.16-3.54-2.32-6.98-6.37-6.98-3.67,0-6.37,2.99-6.56,6.98h12.94Z"/><path class="cls-1" d="M116.74,23.24V12.1h-2.48v-.93h2.48V5.73h1.03v5.44h5.89v.93h-5.89v11.04c0,2.38,1.26,3.57,3.38,3.57,.8,0,1.61-.19,2.45-.58v1c-.8,.39-1.64,.55-2.54,.55-2.61,0-4.31-1.51-4.31-4.44Z"/><g><path class="cls-2" d="M7.76,17.38l-2.85,2.85v6.45c-.29-.23-.44-.4-.44-.4,0,0-3.13-4.12,1.34-8.49l1.17-1.19,.78,.78Z"/><path class="cls-2" d="M10.37,24.12l-1.94,.99v2.74c-1.27,.04-2.28-.37-2.96-.78v-6.61l3.08-3.08-1.18-1.18,.82-.84s1.09-1.49,1.34-3.28c.08-.56,.38-1.1,.84-1.59v13.63Z"/><path class="cls-2" d="M10.93,24.46v-6.48l3.31,1.81v6.72c-1.09,.04-2.26,.25-3.42,.76-.65,.29-1.26,.45-1.83,.53v-2.35l1.94-.99Z"/><path class="cls-2" d="M19.91,15.89l-2.24,2.24v8.75c-.73-.19-1.73-.37-2.86-.38v-7.04l-3.87-2.12v-7.36c1.04-.81,2.51-1.35,3.94-1.33,.79,.02,1.49,.16,2.07,.35l-2.7,3.01v3.47h5.67v.41Z"/><path class="cls-2" d="M22.3,16.22l-1.76,1.93v9.57c-.5-.09-1.04-.23-1.63-.44,0,0-.25-.1-.68-.24v-8.67l2.24-2.24v-1.2h-5.67v-2.69l2.7-3.01c.9,.38,1.41,.82,1.41,.82,0,0,1.24,.94,2.18,4.52,.18,.69,.53,1.04,1.21,1.65Z"/><path class="cls-2" d="M25.57,19.85l-2.59,2.42v5.43c-.53,.13-1.15,.17-1.87,.1v-9.43l1.62-1.77c.45,.41,1.01,.93,1.7,1.66,.5,.53,.87,1.06,1.15,1.59Z"/><path class="cls-2" d="M26.06,24.69s-.47,2.04-2.52,2.83v-5.01l2.28-2.13c.97,2.32,.24,4.31,.24,4.31Z"/></g><path class="cls-2" d="M6.06,10.5c-1.4-1.68-3.65-2.11-5.03-.97-1.39,1.15-1.37,3.44,.02,5.13,1.39,1.68,3.65,2.11,5.03,.97,1.38-1.15,1.37-3.44-.02-5.13Zm-1.36,3.22c-.52,.52-1.45,.43-2.08-.2-.63-.63-.72-1.56-.2-2.08,.52-.52,1.45-.43,2.09,.2,.63,.63,.72,1.57,.2,2.08Z"/><path class="cls-2" d="M12.31,3.91c-.47-2.13-2.27-3.56-4.02-3.18-1.76,.38-2.81,2.42-2.34,4.56,.46,2.14,2.26,3.56,4.02,3.18,1.76-.38,2.81-2.42,2.34-4.56Zm-2.69,2.23c-.7,.22-1.49-.29-1.76-1.14-.27-.85,.08-1.72,.78-1.94,.7-.22,1.49,.29,1.76,1.14,.27,.85-.08,1.72-.78,1.94Z"/><path class="cls-2" d="M22.73,4.99c.74-2.06-.03-4.22-1.72-4.83-1.69-.61-3.67,.56-4.41,2.62-.74,2.05,.03,4.22,1.72,4.83,1.69,.61,3.66-.56,4.41-2.62Zm-3.47,.46c-.71-.18-1.11-1.03-.88-1.9,.22-.86,.98-1.41,1.69-1.23,.71,.19,1.11,1.04,.88,1.9-.22,.86-.98,1.42-1.7,1.23Z"/><path class="cls-2" d="M29.25,13.41c.97-1.96,.45-4.19-1.16-4.99-1.61-.8-3.71,.14-4.68,2.1-.97,1.96-.45,4.19,1.16,4.99,1.61,.8,3.7-.14,4.68-2.1Zm-3.5,.06c-.69-.26-.98-1.15-.66-1.99,.32-.83,1.14-1.29,1.82-1.03,.69,.27,.98,1.15,.66,1.99-.32,.83-1.14,1.3-1.82,1.03Z"/><rect class="cls-2" x="50.16" y="7.22" width="2.62" height="2.53"/></svg>